<?xml version="1.0" encoding="UTF-8" standalone="no"?>
<!DOCTYPE svg PUBLIC "-//W3C//DTD SVG 1.1//EN"
 "http://www.w3.org/Graphics/SVG/1.1/DTD/svg11.dtd">
<!-- Generated by graphviz version 12.2.1 (0)
 -->
<!-- Title: G Pages: 1 -->
<svg width="754pt" height="369pt"
 viewBox="0.00 0.00 753.87 369.00" xmlns="http://www.w3.org/2000/svg" xmlns:xlink="http://www.w3.org/1999/xlink">
<g id="graph0" class="graph" transform="scale(1 1) rotate(0) translate(4 365)">
<title>G</title><style>.edge>path:hover{stroke-width:8}</style>
<polygon fill="white" stroke="none" points="-4,4 -4,-365 749.87,-365 749.87,4 -4,4"/>
<!-- applicant_search -->
<g id="node1" class="node">
<title>applicant_search</title><style>.edge>path:hover{stroke-width:8}</style>
<ellipse fill="#a44646" stroke="black" cx="184.87" cy="-127" rx="52.96" ry="18"/>
<text text-anchor="middle" x="184.87" y="-123.12" font-family="Helvetica,sans-Serif" font-size="10.00" fill="#ffffff">applicant_search</text>
</g>
<!-- flask_app_py -->
<g id="node7" class="node">
<title>flask_app_py</title><style>.edge>path:hover{stroke-width:8}</style>
<ellipse fill="#35633b" stroke="black" cx="299.87" cy="-18" rx="42.31" ry="18"/>
<text text-anchor="middle" x="299.87" y="-14.12" font-family="Helvetica,sans-Serif" font-size="10.00" fill="#ffffff">flask_app.py</text>
</g>
<!-- applicant_search&#45;&gt;flask_app_py -->
<g id="edge1" class="edge">
<title>applicant_search&#45;&gt;flask_app_py</title><style>.edge>path:hover{stroke-width:8}</style>
<path fill="none" stroke="black" d="M226.05,-115.33C259.3,-105.45 300.5,-89.81 299.87,-73"/>
</g>
<!-- bs4 -->
<g id="node2" class="node">
<title>bs4</title><style>.edge>path:hover{stroke-width:8}</style>
<ellipse fill="#c06d40" stroke="black" cx="692.87" cy="-271" rx="27" ry="18"/>
<text text-anchor="middle" x="692.87" y="-267.12" font-family="Helvetica,sans-Serif" font-size="10.00" fill="#000000">bs4</text>
</g>
<!-- scrape -->
<g id="node14" class="node">
<title>scrape</title><style>.edge>path:hover{stroke-width:8}</style>
<ellipse fill="#853db8" stroke="black" cx="608.87" cy="-199" rx="27" ry="18"/>
<text text-anchor="middle" x="608.87" y="-195.12" font-family="Helvetica,sans-Serif" font-size="10.00" fill="#ffffff">scrape</text>
</g>
<!-- bs4&#45;&gt;scrape -->
<g id="edge2" class="edge">
<title>bs4&#45;&gt;scrape</title><style>.edge>path:hover{stroke-width:8}</style>
<path fill="none" stroke="black" d="M676.67,-256.5C664.55,-246.4 647.74,-232.39 633.89,-220.86"/>
<polygon fill="#c06d40" stroke="black" points="636.39,-218.38 626.46,-214.66 631.91,-223.75 636.39,-218.38"/>
</g>
<!-- busy_state -->
<g id="node3" class="node">
<title>busy_state</title><style>.edge>path:hover{stroke-width:8}</style>
<ellipse fill="#b69953" stroke="black" cx="37.87" cy="-127" rx="37.87" ry="18"/>
<text text-anchor="middle" x="37.87" y="-123.12" font-family="Helvetica,sans-Serif" font-size="10.00" fill="#000000">busy_state</text>
</g>
<!-- busy_state&#45;&gt;flask_app_py -->
<g id="edge3" class="edge">
<title>busy_state&#45;&gt;flask_app_py</title><style>.edge>path:hover{stroke-width:8}</style>
<path fill="none" stroke="black" d="M299.87,-72C299.57,-64.06 299.47,-55.45 299.47,-47.52"/>
<polygon fill="#b69953" stroke="black" points="302.97,-47.73 299.53,-37.71 295.97,-47.68 302.97,-47.73"/>
<path fill="none" stroke="black" d="M67.62,-115.45C74.85,-113.11 82.59,-110.8 89.87,-109 135.83,-97.61 301.66,-120.31 299.87,-73"/>
</g>
<!-- config -->
<g id="node4" class="node">
<title>config</title><style>.edge>path:hover{stroke-width:8}</style>
<ellipse fill="#d3df0b" stroke="black" cx="420.87" cy="-271" rx="27" ry="18"/>
<text text-anchor="middle" x="420.87" y="-267.12" font-family="Helvetica,sans-Serif" font-size="10.00" fill="#000000">config</text>
</g>
<!-- config&#45;&gt;flask_app_py -->
<g id="edge4" class="edge">
<title>config&#45;&gt;flask_app_py</title><style>.edge>path:hover{stroke-width:8}</style>
<path fill="none" stroke="black" d="M403.87,-198C393.51,-168.66 424.6,-151.19 403.87,-128"/>
<path fill="none" stroke="black" d="M403.87,-126C396.32,-117.55 394.44,-115.07 384.87,-109 350.22,-87.02 301.31,-114 299.87,-73"/>
</g>
<!-- load_data -->
<g id="node8" class="node">
<title>load_data</title><style>.edge>path:hover{stroke-width:8}</style>
<ellipse fill="#2fbc71" stroke="black" cx="171.87" cy="-199" rx="34.32" ry="18"/>
<text text-anchor="middle" x="171.87" y="-195.12" font-family="Helvetica,sans-Serif" font-size="10.00" fill="#000000">load_data</text>
</g>
<!-- config&#45;&gt;load_data -->
<g id="edge5" class="edge">
<title>config&#45;&gt;load_data</title><style>.edge>path:hover{stroke-width:8}</style>
<path fill="none" stroke="black" d="M396.08,-263.03C353.11,-250.95 264.39,-226.01 212.36,-211.38"/>
<polygon fill="#d3df0b" stroke="black" points="213.56,-208.08 202.99,-208.75 211.67,-214.82 213.56,-208.08"/>
</g>
<!-- models -->
<g id="node9" class="node">
<title>models</title><style>.edge>path:hover{stroke-width:8}</style>
<ellipse fill="#3db8a2" stroke="black" cx="459.87" cy="-199" rx="28.11" ry="18"/>
<text text-anchor="middle" x="459.87" y="-195.12" font-family="Helvetica,sans-Serif" font-size="10.00" fill="#000000">models</text>
</g>
<!-- config&#45;&gt;models -->
<g id="edge6" class="edge">
<title>config&#45;&gt;models</title><style>.edge>path:hover{stroke-width:8}</style>
<path fill="none" stroke="black" d="M429.91,-253.76C434.49,-245.55 440.16,-235.37 445.33,-226.09"/>
<polygon fill="#d3df0b" stroke="black" points="448.33,-227.91 450.14,-217.47 442.21,-224.5 448.33,-227.91"/>
</g>
<!-- orm_queries -->
<g id="node10" class="node">
<title>orm_queries</title><style>.edge>path:hover{stroke-width:8}</style>
<ellipse fill="#3d808f" stroke="black" cx="334.87" cy="-127" rx="40.97" ry="18"/>
<text text-anchor="middle" x="334.87" y="-123.12" font-family="Helvetica,sans-Serif" font-size="10.00" fill="#ffffff">orm_queries</text>
</g>
<!-- config&#45;&gt;orm_queries -->
<g id="edge7" class="edge">
<title>config&#45;&gt;orm_queries</title><style>.edge>path:hover{stroke-width:8}</style>
<path fill="none" stroke="black" d="M417.69,-252.74C414.81,-238.4 410.07,-217.57 403.87,-200"/>
<path fill="none" stroke="black" d="M403.87,-198C396.95,-178.41 381.01,-161.62 366.19,-149.4"/>
<polygon fill="#d3df0b" stroke="black" points="368.44,-146.71 358.4,-143.33 364.13,-152.24 368.44,-146.71"/>
</g>
<!-- pull_data -->
<g id="node12" class="node">
<title>pull_data</title><style>.edge>path:hover{stroke-width:8}</style>
<ellipse fill="#404a96" stroke="black" cx="464.87" cy="-127" rx="32.54" ry="18"/>
<text text-anchor="middle" x="464.87" y="-123.12" font-family="Helvetica,sans-Serif" font-size="10.00" fill="#ffffff">pull_data</text>
</g>
<!-- config&#45;&gt;pull_data -->
<g id="edge8" class="edge">
<title>config&#45;&gt;pull_data</title><style>.edge>path:hover{stroke-width:8}</style>
<path fill="none" stroke="black" d="M515.87,-198C510.2,-180.76 498.54,-164.21 487.8,-151.54"/>
<polygon fill="#d3df0b" stroke="black" points="490.51,-149.32 481.24,-144.17 485.28,-153.97 490.51,-149.32"/>
<path fill="none" stroke="black" d="M446.2,-263.8C478,-254.5 527.12,-234.26 515.87,-200"/>
</g>
<!-- query_data -->
<g id="node13" class="node">
<title>query_data</title><style>.edge>path:hover{stroke-width:8}</style>
<ellipse fill="#5c46a4" stroke="black" cx="299.87" cy="-199" rx="37.87" ry="18"/>
<text text-anchor="middle" x="299.87" y="-195.12" font-family="Helvetica,sans-Serif" font-size="10.00" fill="#ffffff">query_data</text>
</g>
<!-- config&#45;&gt;query_data -->
<g id="edge9" class="edge">
<title>config&#45;&gt;query_data</title><style>.edge>path:hover{stroke-width:8}</style>
<path fill="none" stroke="black" d="M400.89,-258.44C382.46,-247.78 354.75,-231.75 333.01,-219.17"/>
<polygon fill="#d3df0b" stroke="black" points="334.91,-216.23 324.5,-214.25 331.41,-222.29 334.91,-216.23"/>
</g>
<!-- dotenv -->
<g id="node5" class="node">
<title>dotenv</title><style>.edge>path:hover{stroke-width:8}</style>
<ellipse fill="#8dcc33" stroke="black" cx="652.87" cy="-343" rx="27" ry="18"/>
<text text-anchor="middle" x="652.87" y="-339.12" font-family="Helvetica,sans-Serif" font-size="10.00" fill="#000000">dotenv</text>
</g>
<!-- dotenv&#45;&gt;config -->
<g id="edge10" class="edge">
<title>dotenv&#45;&gt;config</title><style>.edge>path:hover{stroke-width:8}</style>
<path fill="none" stroke="black" d="M628.48,-334.64C587.32,-322.22 503.9,-297.05 456.28,-282.69"/>
<polygon fill="#8dcc33" stroke="black" points="457.31,-279.34 446.73,-279.8 455.29,-286.04 457.31,-279.34"/>
</g>
<!-- flask -->
<g id="node6" class="node">
<title>flask</title><style>.edge>path:hover{stroke-width:8}</style>
<ellipse fill="#5ab83d" stroke="black" cx="718.87" cy="-199" rx="27" ry="18"/>
<text text-anchor="middle" x="718.87" y="-195.12" font-family="Helvetica,sans-Serif" font-size="10.00" fill="#000000">flask</text>
</g>
<!-- dotenv&#45;&gt;flask -->
<g id="edge11" class="edge">
<title>dotenv&#45;&gt;flask</title><style>.edge>path:hover{stroke-width:8}</style>
<path fill="none" stroke="black" d="M675.79,-333.1C693.85,-324.72 717.78,-310.25 728.87,-289 738.71,-270.14 735.18,-246.02 729.75,-227.64"/>
<polygon fill="#8dcc33" stroke="black" points="733.09,-226.6 726.61,-218.22 726.45,-228.81 733.09,-226.6"/>
</g>
<!-- flask&#45;&gt;flask_app_py -->
<g id="edge12" class="edge">
<title>flask&#45;&gt;flask_app_py</title><style>.edge>path:hover{stroke-width:8}</style>
<path fill="none" stroke="black" d="M700.55,-185.27C682.67,-172.25 655.37,-150.76 635.87,-128"/>
</g>
<!-- load_data&#45;&gt;applicant_search -->
<g id="edge13" class="edge">
<title>load_data&#45;&gt;applicant_search</title><style>.edge>path:hover{stroke-width:8}</style>
<path fill="none" stroke="black" d="M175.08,-180.7C176.45,-173.32 178.09,-164.52 179.62,-156.25"/>
<polygon fill="#2fbc71" stroke="black" points="183.03,-157.06 181.42,-146.59 176.15,-155.79 183.03,-157.06"/>
</g>
<!-- load_data&#45;&gt;flask_app_py -->
<g id="edge14" class="edge">
<title>load_data&#45;&gt;flask_app_py</title><style>.edge>path:hover{stroke-width:8}</style>
<path fill="none" stroke="black" d="M193.96,-185.05C209.7,-175.22 230.82,-160.74 246.87,-145 261.05,-131.09 300.62,-92.85 299.87,-73"/>
</g>
<!-- load_data&#45;&gt;pull_data -->
<g id="edge15" class="edge">
<title>load_data&#45;&gt;pull_data</title><style>.edge>path:hover{stroke-width:8}</style>
<path fill="none" stroke="black" d="M203.4,-191.33C267.43,-177.75 407.53,-147.97 417.87,-145 421.18,-144.05 424.6,-142.98 428,-141.86"/>
<polygon fill="#2fbc71" stroke="black" points="428.98,-145.23 437.29,-138.66 426.7,-138.61 428.98,-145.23"/>
</g>
<!-- models&#45;&gt;flask_app_py -->
<g id="edge16" class="edge">
<title>models&#45;&gt;flask_app_py</title><style>.edge>path:hover{stroke-width:8}</style>
<path fill="none" stroke="black" d="M448.1,-182.31C437.08,-167.85 419.95,-145.98 403.87,-128"/>
</g>
<!-- models&#45;&gt;orm_queries -->
<g id="edge17" class="edge">
<title>models&#45;&gt;orm_queries</title><style>.edge>path:hover{stroke-width:8}</style>
<path fill="none" stroke="black" d="M439.23,-186.44C420.23,-175.8 391.67,-159.81 369.23,-147.24"/>
<polygon fill="#3db8a2" stroke="black" points="371.16,-144.31 360.73,-142.48 367.74,-150.42 371.16,-144.31"/>
</g>
<!-- orm_queries&#45;&gt;flask_app_py -->
<g id="edge18" class="edge">
<title>orm_queries&#45;&gt;flask_app_py</title><style>.edge>path:hover{stroke-width:8}</style>
<path fill="none" stroke="black" d="M318.17,-110.53C309.43,-100.77 300.41,-87.32 299.87,-73"/>
</g>
<!-- psycopg2 -->
<g id="node11" class="node">
<title>psycopg2</title><style>.edge>path:hover{stroke-width:8}</style>
<ellipse fill="#0678f9" stroke="black" cx="233.87" cy="-343" rx="34.32" ry="18"/>
<text text-anchor="middle" x="233.87" y="-339.12" font-family="Helvetica,sans-Serif" font-size="10.00" fill="#ffffff">psycopg2</text>
</g>
<!-- psycopg2&#45;&gt;applicant_search -->
<g id="edge19" class="edge">
<title>psycopg2&#45;&gt;applicant_search</title><style>.edge>path:hover{stroke-width:8}</style>
<path fill="none" stroke="black" d="M33.87,-270C11.45,-227.32 60.59,-213.85 95.87,-181 110.15,-167.71 128.31,-156.16 144.49,-147.27"/>
<polygon fill="#0678f9" stroke="black" points="145.73,-150.57 152.93,-142.8 142.45,-144.39 145.73,-150.57"/>
</g>
<!-- psycopg2&#45;&gt;config -->
<g id="edge20" class="edge">
<title>psycopg2&#45;&gt;config</title><style>.edge>path:hover{stroke-width:8}</style>
<path fill="none" stroke="black" d="M261.06,-331.82C294.48,-319.31 351.17,-298.09 387.28,-284.57"/>
<polygon fill="#0678f9" stroke="black" points="388.22,-287.96 396.35,-281.18 385.76,-281.4 388.22,-287.96"/>
</g>
<!-- psycopg2&#45;&gt;flask_app_py -->
<g id="edge21" class="edge">
<title>psycopg2&#45;&gt;flask_app_py</title><style>.edge>path:hover{stroke-width:8}</style>
<path fill="none" stroke="black" d="M33.87,-270C19.52,-242.4 27.96,-230.54 33.87,-200"/>
<path fill="none" stroke="black" d="M33.87,-198C35.73,-188.39 41.22,-188.18 47.87,-181 49.83,-178.88 120.31,-110.34 122.87,-109 158.42,-90.36 301.28,-113.11 299.87,-73"/>
<path fill="none" stroke="black" d="M199.12,-342.68C150.4,-341.43 64.33,-330.59 33.87,-272"/>
</g>
<!-- psycopg2&#45;&gt;load_data -->
<g id="edge22" class="edge">
<title>psycopg2&#45;&gt;load_data</title><style>.edge>path:hover{stroke-width:8}</style>
<path fill="none" stroke="black" d="M233.78,-324.74C233.73,-310.57 233.7,-289.99 233.87,-272"/>
<path fill="none" stroke="black" d="M233.87,-270C234.06,-249.37 218.79,-231.98 203.35,-219.69"/>
<polygon fill="#0678f9" stroke="black" points="205.71,-217.07 195.58,-213.95 201.55,-222.71 205.71,-217.07"/>
</g>
<!-- psycopg2&#45;&gt;orm_queries -->
<g id="edge23" class="edge">
<title>psycopg2&#45;&gt;orm_queries</title><style>.edge>path:hover{stroke-width:8}</style>
<path fill="none" stroke="black" d="M233.87,-270C234.24,-229.55 229.91,-214.3 252.87,-181 263.45,-165.66 280.06,-153.72 295.57,-145.09"/>
<polygon fill="#0678f9" stroke="black" points="296.94,-148.32 304.19,-140.6 293.71,-142.12 296.94,-148.32"/>
</g>
<!-- psycopg2&#45;&gt;pull_data -->
<g id="edge24" class="edge">
<title>psycopg2&#45;&gt;pull_data</title><style>.edge>path:hover{stroke-width:8}</style>
<path fill="none" stroke="black" d="M268.06,-339.98C350.48,-333.4 550.81,-306.37 515.87,-200"/>
</g>
<!-- psycopg2&#45;&gt;query_data -->
<g id="edge25" class="edge">
<title>psycopg2&#45;&gt;query_data</title><style>.edge>path:hover{stroke-width:8}</style>
<path fill="none" stroke="black" d="M233.87,-270C234.06,-249.06 249.9,-231.84 266.01,-219.72"/>
<polygon fill="#0678f9" stroke="black" points="267.96,-222.63 274.17,-214.04 263.96,-216.88 267.96,-222.63"/>
</g>
<!-- sql_utils -->
<g id="node16" class="node">
<title>sql_utils</title><style>.edge>path:hover{stroke-width:8}</style>
<ellipse fill="#e619aa" stroke="black" cx="92.87" cy="-271" rx="30.77" ry="18"/>
<text text-anchor="middle" x="92.87" y="-267.12" font-family="Helvetica,sans-Serif" font-size="10.00" fill="#ffffff">sql_utils</text>
</g>
<!-- psycopg2&#45;&gt;sql_utils -->
<g id="edge26" class="edge">
<title>psycopg2&#45;&gt;sql_utils</title><style>.edge>path:hover{stroke-width:8}</style>
<path fill="none" stroke="black" d="M209.63,-329.97C186.52,-318.49 151.52,-301.12 125.87,-288.38"/>
<polygon fill="#0678f9" stroke="black" points="127.73,-285.4 117.21,-284.09 124.61,-291.67 127.73,-285.4"/>
</g>
<!-- pull_data&#45;&gt;flask_app_py -->
<g id="edge27" class="edge">
<title>pull_data&#45;&gt;flask_app_py</title><style>.edge>path:hover{stroke-width:8}</style>
<path fill="none" stroke="black" d="M438.6,-116.23C431.87,-113.8 424.62,-111.25 417.87,-109 365.85,-91.67 301.94,-127.79 299.87,-73"/>
</g>
<!-- query_data&#45;&gt;orm_queries -->
<g id="edge28" class="edge">
<title>query_data&#45;&gt;orm_queries</title><style>.edge>path:hover{stroke-width:8}</style>
<path fill="none" stroke="black" d="M308.34,-181.05C312.25,-173.23 316.99,-163.75 321.38,-154.98"/>
<polygon fill="#5c46a4" stroke="black" points="324.46,-156.65 325.8,-146.14 318.19,-153.52 324.46,-156.65"/>
</g>
<!-- scrape&#45;&gt;flask_app_py -->
<g id="edge29" class="edge">
<title>scrape&#45;&gt;flask_app_py</title><style>.edge>path:hover{stroke-width:8}</style>
<path fill="none" stroke="black" d="M622.67,-183.1C635.14,-167.8 649.6,-144.02 635.87,-128"/>
</g>
<!-- scrape&#45;&gt;pull_data -->
<g id="edge30" class="edge">
<title>scrape&#45;&gt;pull_data</title><style>.edge>path:hover{stroke-width:8}</style>
<path fill="none" stroke="black" d="M587.31,-187.52C563.9,-176.14 526.19,-157.81 498.8,-144.49"/>
<polygon fill="#853db8" stroke="black" points="500.38,-141.37 489.85,-140.15 497.32,-147.67 500.38,-141.37"/>
</g>
<!-- selenium -->
<g id="node15" class="node">
<title>selenium</title><style>.edge>path:hover{stroke-width:8}</style>
<ellipse fill="#cf26d9" stroke="black" cx="614.87" cy="-271" rx="32.54" ry="18"/>
<text text-anchor="middle" x="614.87" y="-267.12" font-family="Helvetica,sans-Serif" font-size="10.00" fill="#ffffff">selenium</text>
</g>
<!-- selenium&#45;&gt;flask_app_py -->
<g id="edge31" class="edge">
<title>selenium&#45;&gt;flask_app_py</title><style>.edge>path:hover{stroke-width:8}</style>
<path fill="none" stroke="black" d="M626.66,-254.24C633.45,-244.17 641.31,-230.5 644.87,-217 654.99,-178.55 661.74,-158.19 635.87,-128"/>
</g>
<!-- selenium&#45;&gt;pull_data -->
<g id="edge32" class="edge">
<title>selenium&#45;&gt;pull_data</title><style>.edge>path:hover{stroke-width:8}</style>
<path fill="none" stroke="black" d="M587.5,-261.16C561.97,-251.1 526.31,-231.8 515.87,-200"/>
</g>
<!-- selenium&#45;&gt;scrape -->
<g id="edge33" class="edge">
<title>selenium&#45;&gt;scrape</title><style>.edge>path:hover{stroke-width:8}</style>
<path fill="none" stroke="black" d="M613.39,-252.7C612.76,-245.41 612.02,-236.73 611.31,-228.54"/>
<polygon fill="#cf26d9" stroke="black" points="614.81,-228.28 610.46,-218.61 607.83,-228.87 614.81,-228.28"/>
</g>
<!-- sql_utils&#45;&gt;applicant_search -->
<g id="edge34" class="edge">
<title>sql_utils&#45;&gt;applicant_search</title><style>.edge>path:hover{stroke-width:8}</style>
<path fill="none" stroke="black" d="M93.06,-252.66C94.1,-237.29 97.79,-215 109.87,-200"/>
<path fill="none" stroke="black" d="M109.87,-198C123.68,-180.83 141.66,-163.91 156.55,-151"/>
<polygon fill="#e619aa" stroke="black" points="158.41,-154.02 163.76,-144.88 153.87,-148.69 158.41,-154.02"/>
</g>
<!-- sql_utils&#45;&gt;flask_app_py -->
<g id="edge35" class="edge">
<title>sql_utils&#45;&gt;flask_app_py</title><style>.edge>path:hover{stroke-width:8}</style>
<path fill="none" stroke="black" d="M71.45,-257.92C52.69,-245.54 29.1,-224.65 33.87,-200"/>
</g>
<!-- sql_utils&#45;&gt;load_data -->
<g id="edge36" class="edge">
<title>sql_utils&#45;&gt;load_data</title><style>.edge>path:hover{stroke-width:8}</style>
<path fill="none" stroke="black" d="M109.24,-255.5C120,-245.96 134.31,-233.28 146.53,-222.46"/>
<polygon fill="#e619aa" stroke="black" points="148.68,-225.22 153.84,-215.97 144.04,-219.98 148.68,-225.22"/>
</g>
<!-- sql_utils&#45;&gt;orm_queries -->
<g id="edge37" class="edge">
<title>sql_utils&#45;&gt;orm_queries</title><style>.edge>path:hover{stroke-width:8}</style>
<path fill="none" stroke="black" d="M109.87,-198C116.97,-189.17 118.88,-186.34 128.87,-181 156.02,-166.49 235.22,-148.39 287.13,-137.54"/>
<polygon fill="#e619aa" stroke="black" points="287.52,-141.03 296.6,-135.58 286.1,-134.18 287.52,-141.03"/>
</g>
<!-- sql_utils&#45;&gt;query_data -->
<g id="edge38" class="edge">
<title>sql_utils&#45;&gt;query_data</title><style>.edge>path:hover{stroke-width:8}</style>
<path fill="none" stroke="black" d="M119.09,-261.13C154.26,-249.24 217.11,-227.98 258.65,-213.94"/>
<polygon fill="#e619aa" stroke="black" points="259.72,-217.27 268.07,-210.75 257.48,-210.64 259.72,-217.27"/>
</g>
<!-- sqlalchemy -->
<g id="node17" class="node">
<title>sqlalchemy</title><style>.edge>path:hover{stroke-width:8}</style>
<ellipse fill="#e61961" stroke="black" cx="447.87" cy="-343" rx="38.76" ry="18"/>
<text text-anchor="middle" x="447.87" y="-339.12" font-family="Helvetica,sans-Serif" font-size="10.00" fill="#ffffff">sqlalchemy</text>
</g>
<!-- sqlalchemy&#45;&gt;config -->
<g id="edge39" class="edge">
<title>sqlalchemy&#45;&gt;config</title><style>.edge>path:hover{stroke-width:8}</style>
<path fill="none" stroke="black" d="M441.33,-325.05C438.35,-317.32 434.74,-307.96 431.39,-299.27"/>
<polygon fill="#e61961" stroke="black" points="434.75,-298.27 427.89,-290.2 428.22,-300.79 434.75,-298.27"/>
</g>
<!-- sqlalchemy&#45;&gt;flask_app_py -->
<g id="edge40" class="edge">
<title>sqlalchemy&#45;&gt;flask_app_py</title><style>.edge>path:hover{stroke-width:8}</style>
<path fill="none" stroke="black" d="M635.87,-126C588.18,-67.35 302.54,-148.54 299.87,-73"/>
<path fill="none" stroke="black" d="M468.4,-327.29C481.29,-317.4 497.71,-303.56 509.87,-289 545.49,-246.35 537.08,-223.51 572.87,-181 596.43,-153.01 658.95,-156.39 635.87,-128"/>
</g>
<!-- sqlalchemy&#45;&gt;models -->
<g id="edge41" class="edge">
<title>sqlalchemy&#45;&gt;models</title><style>.edge>path:hover{stroke-width:8}</style>
<path fill="none" stroke="black" d="M451.37,-324.89C453.34,-314.55 455.65,-301.07 456.87,-289 458.9,-268.98 459.64,-246.3 459.88,-228.85"/>
<polygon fill="#e61961" stroke="black" points="463.38,-228.98 459.96,-218.95 456.38,-228.93 463.38,-228.98"/>
</g>
<!-- sqlalchemy&#45;&gt;orm_queries -->
<g id="edge42" class="edge">
<title>sqlalchemy&#45;&gt;orm_queries</title><style>.edge>path:hover{stroke-width:8}</style>
<path fill="none" stroke="black" d="M425.5,-328.02C411.98,-318.52 395.39,-304.84 384.87,-289 370.31,-267.08 351.53,-196.51 341.65,-156.46"/>
<polygon fill="#e61961" stroke="black" points="345.06,-155.69 339.29,-146.8 338.26,-157.35 345.06,-155.69"/>
</g>
</g>
</svg>
